<?xml version="1.0" encoding="utf-8"?>
<svg xmlns="http://www.w3.org/2000/svg" version="1.1" x="0px" y="0px" viewBox="0 0 478.2 627.25" style="enable-background:new 0 0 478.2 501.8;">
  <g>
    <g>
      <path d="M193.5,163L193.5,163c-11.7,7.6-19.9,19.6-22.7,33.3l-5.5,27.1c-3.2,15.8,1.2,32,11.6,44.3c1.3,1.6,2.6,3.2,3.7,4.9    c3.8,5.6,11.8,6,16.1,0.8l48.5-58.2c11.6-14,7.6-35.1-8.3-43.9l-17-9.3C211.6,157.5,201.5,157.9,193.5,163z" style="fill: rgb(238, 113, 33);"/>
      <path d="M30.9,179l-1.9,2.7c-5.4,7.7-5.5,17.9-0.4,25.8l0.4,0.6c2.4,3.7,5.1,7.2,8.1,10.4c3.1,3.4,8.6,3.3,11.7,0l21.8-23.3    c4-4.3,2.2-11.4-3.4-13.2L44,174.6C39,173,33.8,174.8,30.9,179z" style="fill: rgb(238, 113, 33);"/>
      <path d="M403.1,325c-0.1-1.2-0.1-2.4-0.1-3.6c0-6.3-7.2-10-12.4-6.4l-13.4,9.4c-13.2,9.2-23.5,22-29.7,36.9l-23.1,55.2    c-6.4,15.3,4.6,32.3,21.3,32.7l0,0c8.1,0.2,15.9-3,21.6-8.9l16.1-16.7c15.8-16.4,23.9-38.7,22.4-61.5L403.1,325z" style="fill: rgb(238, 113, 33);"/>
      <path d="M237.1,43.2L237.1,43.2c-8.1,8.7-8.8,21.9-1.7,31.3l7.5,9.9c7.1,9.5,20.3,11.8,30.3,5.4L315,62.6    c7.5-4.9,4.7-16.5-4.2-17.4c-16.3-1.6-34.1-3.3-34.1-3.3c-5.7-0.5-11.2-1.9-16.5-4C252.2,34.7,243,36.9,237.1,43.2z" style="fill: rgb(238, 113, 33);"/>
    </g>
    <g>
      <path d="M430.4,225.3l32.4-13.8c18.2-7.8,21-32.9,4.5-43.8c-3-2-6.5-3.5-10.4-4.2l-13.2-2.6c-24.4-4.8-44.5-22.1-52.8-45.6    c0,0-0.4-1.2-1.1-3.1c-4.6-13.1-21.8-16.2-30.7-5.5l0,0c-7.7,9.3-9.6,22.2-4.7,33.2l29.5,66.9C391.7,224.7,412.5,233,430.4,225.3z    " style="fill: rgb(238, 113, 33);"/>
      <path d="M265.5,265l-19-2.5c-9.6-1.3-19.3,2.5-25.5,10l-26,31.2c-2.6,3.1-4.1,7-4.2,11l0,0c-0.2,6,5.9,10.1,11.4,7.8l67.2-28.6    C283.6,287.9,280.7,267.1,265.5,265z" style="fill: rgb(238, 113, 33);"/>
      <path d="M110.6,134.5l-12.5-27.7c-2.9-6.5-11.9-7.3-15.9-1.5l-28.5,40.9c-3.5,5.1-1.1,12.2,4.8,14l22.6,7.2    c7.2,2.3,15.2,0.2,20.3-5.3l5.7-6.1C112.5,150.3,113.9,141.8,110.6,134.5z" style="fill: rgb(238, 113, 33);"/>
      <path d="M301.9,377.1l-83.8,58.7c-2.5,1.8-3.2,5.2-1.6,7.8l0,0c1,1.7,2.9,2.8,4.9,2.8l44.6,1c15.5,0.3,29.7-8.9,35.7-23.2    l14.8-35.4C320.2,379.8,309.9,371.6,301.9,377.1z" style="fill: rgb(238, 113, 33);"/>
      <path d="M468.8,405l-20.9,51c-4.7,11.6-20.9,12.3-26.6,1.2l-3.6-7c-5.4-10.5-2.7-23.3,6.5-30.8l30.7-24.8    C462.1,388.9,472.3,396.5,468.8,405z" style="fill: rgb(238, 113, 33);"/>
    </g>
    <g>
      <path d="M375.3,232.2l-23-52.3c-8.6-19.6-34.9-23.3-48.6-6.8l-37.5,45c-9.4,11.3-2.7,28.5,11.9,30.4l58.4,7.8    c10.5,1.4,21.1-0.1,30.9-4.2l0,0C375.2,248.9,378.7,239.9,375.3,232.2z" style="fill: rgb(238, 113, 33);"/>
      <path d="M188.4,95.4L102.8,187c-4.6,5,1.6,12.4,7.3,8.7l116.1-75.4c7.6-5,9.5-15.3,4-22.6l0,0C220.1,84,200,83,188.4,95.4z" style="fill: rgb(238, 113, 33);"/>
      <path d="M233.4,328.8l-18.5,7.9c-15.4,6.5-24.6,22.4-22.7,39c1.2,9.9,2.8,20.2,5,27.2c3.3,10.4,15.8,14.5,24.7,8.3l10.9-7.6    c11.3-7.9,18.3-20.5,19.1-34.2l1.5-26.4C254.1,332.2,243.2,324.6,233.4,328.8z" style="fill: rgb(238, 113, 33);"/>
      <path d="M74,85.6l36.2-52c5.4-7.8-1.8-18.1-11-15.6l0,0c-17,4.6-32.6,13-45.7,24.4c-7.5,6.5-9.4,17.3-4.9,26.1l8.1,15.9    C60.1,91.2,69.6,91.9,74,85.6z" style="fill: rgb(238, 113, 33);"/>
    </g>
    <g>
      <path d="M301,148.3l63-75.7c3-3.7,2.6-9.1-1.1-12.2l-0.1-0.1c-2.9-2.4-7.1-2.7-10.3-0.6l-103.8,67.4c-11.4,7.4-10.8,24.2,1.1,30.8    l0,0C267,167.4,288.5,163.3,301,148.3z" style="fill: rgb(238, 113, 33);"/>
      <path d="M144.6,235.1l5.7-28.1c1.4-6.8-6.1-11.9-12-8.1l-52.9,34.3c-4.3,2.8-2.7,9.6,2.5,10H88c0,0,25.4,2,41.4,3.3    C136.7,247.1,143.2,242.2,144.6,235.1z" style="fill: rgb(238, 113, 33);"/>
      <path d="M235.1,474.3L235.1,474.3c19.3,32,63.7,36.9,89.7,10l0,0c6.3-6.6,1.8-17.6-7.3-17.8l-76.9-1.7    C235.6,464.8,232.5,470.1,235.1,474.3z" style="fill: rgb(238, 113, 33);"/>
      <path d="M46.1,103.4l-3.8-7.6c-5.5-10.9-20.9-11.6-27.4-1.3L12,99c-11.7,18.5-14.8,40.6-9.5,61.1c2.1,8.1,12.7,10,17.4,3.2    l24.4-35.1C49.5,120.8,50.1,111.3,46.1,103.4z" style="fill: rgb(238, 113, 33);"/>
      <path d="M429.5,245.3l-135.8,57.8c-12.6,5.4-21,17.4-21.8,31l-0.2,3.9c-0.9,16.2,17.2,26.3,30.5,17l123.1-86.2    c4.9-3.4,9.2-7.6,12.9-12.3l0,0C442.7,250.5,436.4,242.3,429.5,245.3z" style="fill: rgb(238, 113, 33);"/>
      <path d="M145.8,14.1l-31.9,45.8c-6.5,9.3-7.6,21.3-2.9,31.7l11,24.5c3.5,7.7,13.7,9.4,19.5,3.2l78.4-83.9    c8.2-8.7,5.2-22.9-5.7-27.7c-14.3-6.3-30-8.8-45.6-7.1c-0.2,0-0.4,0-0.6,0.1C159,1.7,151,6.7,145.8,14.1z" style="fill: rgb(238, 113, 33);"/>
    </g>
  </g>
</svg>
