<?xml version="1.0" encoding="utf-8"?>
<svg xmlns="http://www.w3.org/2000/svg" version="1.1" viewBox="-5.0 -10.0 110.0 135.0">
  <path d="m33.062 53.621c0.28516 0.28516 0.67188 0.44141 1.0859 0.44141 0.39844 0 0.78906-0.15625 1.0859-0.45312l16.832-16.844c0.42969-0.42969 0.57031-1.0938 0.32812-1.6641-0.23047-0.57031-0.78906-0.94922-1.4102-0.94922h-8.4297l-0.007813-29.996c0-0.84375-0.68359-1.5273-1.5273-1.5273l-13.758 0.003906c-0.84375 0-1.5273 0.68359-1.5273 1.5273v30.02h-8.4297c-0.62109 0-1.1797 0.36719-1.4102 0.94922-0.23047 0.57031-0.10547 1.2305 0.32812 1.6641zm-5.8008-16.391c0.84375 0 1.5273-0.68359 1.5273-1.5273v-30.02h10.695v30.02c0 0.84375 0.68359 1.5273 1.5273 1.5273h6.2734l-13.148 13.148-13.148-13.148z" style="fill: rgb(255, 105, 0);"/>
  <path d="m96.957 63.43c-2.125-4-4.5586-9.9141-4.0195-15.422 0.58984-6.0625 0.78906-13.535-2.8438-17.535-1.4961-1.6523-3.5039-2.5898-5.9883-2.8008v-4.3477c0-0.84375-0.68359-1.5273-1.5273-1.5273l-1 0.003906 3.6211-11.348c0.14844-0.46484 0.0625-0.96875-0.22266-1.3672-0.28516-0.39063-0.74609-0.63281-1.2305-0.63281h-3.4531l0.57812-4.0938c0.0625-0.44141-0.074219-0.88281-0.35938-1.2109-0.29297-0.33594-0.70703-0.52734-1.1484-0.52734h-8.2852c-0.44141 0-0.86328 0.19141-1.1484 0.52734-0.29297 0.33594-0.42188 0.77734-0.35938 1.2109l0.57031 4.0938h-3.4531c-0.48438 0-0.94922 0.23047-1.2305 0.63281-0.28516 0.39062-0.36719 0.90625-0.22266 1.3672l3.6328 11.348h-1c-0.84375 0-1.5273 0.68359-1.5273 1.5273v4.3477c-2.4727 0.21094-4.4844 1.1562-5.9805 2.8008-3.6328 4-3.4297 11.473-2.8516 17.535 0.45313 4.7461-0.53516 8.1992-2.2305 11.758-4.3984-0.09375-9.4531-0.58984-14.336-1.9492-5.8438-1.6094-11.852-0.74609-17.379 2.4961-2.4102 1.4102-4.2227 2.9805-5.3477 4.0742-0.95703-0.96875-2.1562-1.6719-3.5039-2.043-2.0117-0.53516-4.1055-0.26172-5.8828 0.76953l-5.3984 3.1172c-0.34766 0.19922-0.60938 0.53516-0.71484 0.92578-0.10547 0.39062-0.050782 0.80859 0.14844 1.1562l16.328 28.273c0.28516 0.49609 0.80078 0.76953 1.3281 0.76953 0.26172 0 0.52734-0.0625 0.75781-0.19922l5.3984-3.1172c3.3047-1.9062 4.6719-5.9062 3.4102-9.3789 7.043-3 11.336-1.7461 21.758 1.293 2.0195 0.58984 4.2422 0.83203 6.5273 0.83203 5.1484 0 10.602-1.2305 14.832-2.4961 6.5039-1.9375 12.926-4.832 14.938-6.7383 1.5352-1.4531 1.9688-3.2109 1.1484-4.707-1.6719-3.043-7.7773-3.4844-16.746-1.2109-5.3359 1.3477-10.18 1.1562-14.391-0.57031-0.19141-0.074218-0.36719-0.15625-0.53516-0.23047 4.1172-0.09375 7.2422-0.91406 9.3477-2.4297 6.1797-2.0742 15.527-1.3359 21.738-0.84375 5.6836 0.45312 7.3906 0.58984 8.1914-0.74609 0.60156-1.0391 0.63281-2.3008 0.0625-3.3867zm-27.566-35.809v-2.7695h11.664v2.7695zm-0.61328-16.105h1.7891l0.63281 4.4844c0.11719 0.83203 0.88281 1.4219 1.7266 1.3047 0.83203-0.11719 1.4219-0.88281 1.3047-1.7266l-1.3906-9.8945h4.7695l-1.3906 9.8945c-0.11719 0.83203 0.46484 1.6094 1.293 1.7266 0.074219 0.011718 0.14844 0.011718 0.21094 0.011718 0.74609 0 1.3984-0.54688 1.5039-1.3164l0.63281-4.4844h1.7891l-3.2852 10.285h-6.3047zm-43.652 79.883-4.0859 2.3594-14.785-25.633 4.0859-2.3594c1.0859-0.62109 2.3477-0.78906 3.5703-0.46484 1.2227 0.32812 2.2422 1.1055 2.8633 2.1914l10.086 17.465c1.2891 2.2539 0.51953 5.1484-1.7344 6.4414zm25.992-21.273c0.24219 0.27344 5.0938 5.4648 14.664 5.4648 2.2422 0 4.7383-0.28516 7.4961-0.98047 8.9375-2.2617 12.832-1.168 13.316-0.27344 0.09375 0.17969-0.13672 0.60937-0.57031 1.0117-2.8516 2.6953-22.527 10.852-33.348 7.6953-11-3.2109-15.875-4.6328-24.031-1.0859l-8.6719-15.012c0.92578-0.9375 2.7266-2.5898 5.2109-4.0312 4.8438-2.8086 9.8633-3.5273 14.938-2.125 11.117 3.0742 22.77 2 26.82 1.4727 0.042969 0.78906-0.09375 1.8516-0.84375 2.8008-1.2852 1.6406-4.7148 3.4102-13.707 2.5273-0.63281-0.0625-1.2305 0.27344-1.5156 0.83203-0.27344 0.55859-0.17969 1.2422 0.24219 1.7031zm37.797-5.5977c-5.3359-0.42188-12.914-1.0195-19.211 0.074218 0.69531-2.3672-0.050781-4.4844-0.09375-4.6016-0.25391-0.69531-0.96875-1.1055-1.6953-0.98047-0.074218 0.011719-3.875 0.64062-9.293 0.74609 1.3984-3.2539 2.3984-7.043 1.9141-12.051-0.48438-5.0117-0.78906-12.043 2.0742-15.199 1.125-1.2422 2.7148-1.8516 4.8516-1.8516h15.504c2.1367 0 3.7266 0.60156 4.8516 1.8516 2.8633 3.1562 2.5469 10.18 2.0625 15.191-0.60156 6.2422 2.0312 12.746 4.3477 17.105-1.0781 0.050781-3.3125-0.12891-5.3125-0.28516z" style="fill: rgb(255, 105, 0);"/>
  <path d="m76.391 44.57c-2.1367-0.50391-2.875-0.77734-2.875-2.5703 0-1.3906 1.1367-2.5273 2.5273-2.5273 0.98047 0 1.8828 0.57031 2.293 1.4648 0.35937 0.76953 1.2617 1.0938 2.0312 0.73828 0.76953-0.35938 1.0938-1.2617 0.73828-2.0312-0.69531-1.4844-2-2.5703-3.5352-3.0117v-1.9805c0-0.84375-0.68359-1.5273-1.5273-1.5273s-1.5273 0.68359-1.5273 1.5273v1.9805c-2.3359 0.66406-4.0508 2.8086-4.0508 5.3594 0 4.293 3.1484 5.043 5.2227 5.5352 2.1367 0.50391 2.875 0.77734 2.875 2.5703 0 1.3906-1.1367 2.5273-2.5273 2.5273-0.98047 0-1.875-0.57031-2.2852-1.4531-0.35938-0.76953-1.2617-1.0938-2.0312-0.73828-0.76953 0.35938-1.0938 1.2617-0.73828 2.0312 0.69531 1.4844 2 2.5586 3.5273 3v1.9805c0 0.84375 0.68359 1.5273 1.5273 1.5273s1.5273-0.68359 1.5273-1.5273v-1.9805c2.3359-0.66406 4.0508-2.8086 4.0508-5.3594-0.003906-4.2969-3.1484-5.043-5.2227-5.5352z" style="fill: rgb(255, 105, 0);"/>
</svg>