<?xml version="1.0" encoding="utf-8"?>
<svg xmlns="http://www.w3.org/2000/svg" version="1.1" viewBox="-5.0 -10.0 110.0 135.0">
  <path d="m56.855 50.027h9.0781c0.6875 0 1.2461-0.55859 1.2461-1.2461v-9.082c0-0.6875-0.55859-1.2461-1.2461-1.2461h-9.0781c-0.6875 0-1.2461 0.55859-1.2461 1.2461v9.082c0 0.6875 0.55859 1.2461 1.2461 1.2461zm1.2461-9.0859h6.5859v6.5898h-6.5859zm-24.504-2.4922h-9.0781c-0.6875 0-1.2461 0.55859-1.2461 1.2461v9.082c0 0.6875 0.55859 1.2461 1.2461 1.2461h9.0781c0.6875 0 1.2461-0.55859 1.2461-1.2461v-9.082c0-0.6875-0.55859-1.2461-1.2461-1.2461zm-1.2461 9.0859h-6.5859v-6.5898h6.5859zm40.105 3.4297c-0.33594 0-0.67188 0.011718-1.0039 0.03125v-18.082c4.1641-0.96875 7.4414-3.5859 8.7695-7.207 0.16016-0.43359 0.066406-0.92188-0.24609-1.2656l-8.8438-9.7734c-0.23437-0.26172-0.57031-0.41016-0.92578-0.41016l-49.961 0.003907c-0.35156 0-0.6875 0.14844-0.92578 0.41016l-8.8438 9.7734c-0.3125 0.34375-0.40625 0.83203-0.24609 1.2656 1.3281 3.6172 4.6055 6.2344 8.7695 7.207v27.918h-4.5508c-0.6875 0-1.2461 0.55859-1.2461 1.2461v6.9297c0 0.6875 0.55859 1.2461 1.2461 1.2461h40.727c0.94922 8.6953 8.3359 15.484 17.281 15.484 9.5898 0 17.391-7.7969 17.391-17.383-0.003906-9.5938-7.8047-17.395-17.391-17.395zm-4.6797-20.129c-3.1914 0-7.293-1.1992-9.3555-4.4609h18.703c-2.0586 3.2578-6.1562 4.4609-9.3477 4.4609zm-14.508-14.082 1.6602 7.1289h-19.41l1.6602-7.1289zm1.3125 9.6211c-2.0625 3.2617-6.1641 4.4609-9.3555 4.4609-3.1914 0-7.293-1.1992-9.3555-4.4609zm21.523-2.4922h-18.613l-1.6602-7.1289h13.82zm-55.305-7.1289h13.824l-1.6602 7.1289h-18.617zm-7.4766 9.6211h18.703c-2.0625 3.2617-6.1641 4.4609-9.3555 4.4609-3.1875 0-7.2852-1.2031-9.3477-4.4609zm8.168 6.9102c0.39062 0.027344 0.78516 0.042969 1.1836 0.042969 4.8359 0 9.0078-2.0391 11.273-5.3516 2.2656 3.3164 6.4375 5.3516 11.277 5.3516 4.8359 0 9.0078-2.0391 11.277-5.3516 2.2656 3.3164 6.4375 5.3516 11.273 5.3516 0.39844 0 0.79297-0.015625 1.1836-0.042969v18.035c-5.375 1.1016-9.8516 4.6914-12.176 9.5117h-3.0273v-21.137c0-0.6875-0.55859-1.2461-1.2461-1.2461h-14.57c-0.6875 0-1.2461 0.55859-1.2461 1.2461v21.133l-15.203 0.003906zm29.773 27.547h-12.078v-19.891h12.074zm-35.57 2.4922h40.117c-0.42578 1.4141-0.67969 2.8984-0.73047 4.4375h-39.387zm56.762 19.922c-8.2109 0-14.891-6.6797-14.891-14.891 0-8.2148 6.6797-14.895 14.891-14.895 8.2148 0 14.895 6.6836 14.895 14.895 0 8.2109-6.6836 14.891-14.895 14.891zm9.5664-21.285-10.953 14.305c-0.21875 0.28516-0.54687 0.46094-0.90625 0.48438-0.027343 0.003906-0.058593 0.003906-0.085937 0.003906-0.32812 0-0.64453-0.12891-0.87891-0.35938l-6.2031-6.1484c-0.48828-0.48438-0.49219-1.2734-0.007813-1.7617s1.2734-0.49219 1.7617-0.007813l5.1953 5.1523 10.09-13.18c0.41797-0.54688 1.1992-0.64844 1.7461-0.23047 0.55469 0.41406 0.66016 1.1953 0.24219 1.7422z" style="fill: rgb(255, 105, 0);"/>
</svg>