<?xml version="1.0" encoding="utf-8"?>
<svg xmlns="http://www.w3.org/2000/svg" version="1.1" viewBox="-5.0 -10.0 110.0 135.0">
  <path d="m51.727 11.09c-8.2891-0.46875-16.152 2.3945-22.168 8.0742-6.0156 5.6836-9.332 13.363-9.332 21.637 0 8.0156 3.1367 15.531 8.8164 21.168 4.668 4.6211 7.2422 10.547 7.2422 16.668 0 1.1836 0.72656 2.1836 1.7422 2.6055v10.105c0 3.1523 2.5625 5.6953 5.6953 5.6953h12.258c3.1523 0 5.6953-2.5625 5.6953-5.6953v-10.031c1.1367-0.36328 1.9688-1.4258 1.9688-2.6836l0.007813-0.14844c0-6.0625 2.5469-11.91 7.1836-16.453 5.6836-5.5898 8.8477-13.062 8.8945-21.031 0.13281-15.332-12.699-29.031-28.004-29.91zm4.2734 83.105h-12.258c-1.5742 0-2.8477-1.2734-2.8477-2.8477v-4.168h6.9102c0.78906 0 1.4258-0.63672 1.4258-1.4258 0-0.78906-0.63672-1.4258-1.4258-1.4258h-6.9102v-2.8789h17.953v7h-6.9102c-0.78906 0-1.4258 0.63672-1.4258 1.4258s0.63672 1.4258 1.4258 1.4258h6.9102v0.046875c0.015625 1.5781-1.2734 2.8477-2.8477 2.8477zm12.863-34.195c-5.1836 5.0898-8.0312 11.668-8.0312 18.5l0.03125 0.12109h-0.57422l-20.699 0.015625c-0.046875 0-0.074219-0.03125-0.12109-0.03125s-0.074219 0.015625-0.12109 0.03125h-0.19531c0-6.8945-2.8789-13.531-8.0898-18.695-5.1523-5.0898-7.9844-11.895-7.9844-19.137 0-7.4844 3-14.426 8.4375-19.562 5.0469-4.7734 11.547-7.3477 18.453-7.3477 0.53125 0 1.0625 0.015625 1.5898 0.046875 13.594 0.76953 25.441 13.406 25.352 27.043-0.046875 7.1992-2.9102 13.953-8.0469 19.016z" style="fill: rgb(255, 105, 0);"/>
  <path d="m50 7.6211c0.78906 0 1.4258-0.63672 1.4258-1.4258v-1.8164c0-0.78906-0.63672-1.4258-1.4258-1.4258s-1.4258 0.63672-1.4258 1.4258v1.8164c0 0.78906 0.63672 1.4258 1.4258 1.4258z" style="fill: rgb(255, 105, 0);"/>
  <path d="m23.879 17.605c0.27344 0.27344 0.63672 0.42578 1.0156 0.42578 0.37891 0 0.72656-0.13672 1.0156-0.42578 0.5625-0.5625 0.5625-1.4531 0-2.0156l-1.2891-1.2891c-0.5625-0.5625-1.4531-0.5625-2.0156 0s-0.5625 1.4531 0 2.0156z" style="fill: rgb(255, 105, 0);"/>
  <path d="m14.469 40.289h-1.8164c-0.78906 0-1.4258 0.63672-1.4258 1.4258 0 0.78906 0.63672 1.4258 1.4258 1.4258h1.8164c0.78906 0 1.4258-0.63672 1.4258-1.4258 0.015625-0.78906-0.63672-1.4258-1.4258-1.4258z" style="fill: rgb(255, 105, 0);"/>
  <path d="m23.879 65.832-1.2891 1.2891c-0.5625 0.5625-0.5625 1.4531 0 2.0156 0.27344 0.27344 0.63672 0.42578 1.0156 0.42578 0.36328 0 0.72656-0.13672 1.0156-0.42578l1.2891-1.2891c0.5625-0.5625 0.5625-1.4531 0-2.0156-0.57812-0.55859-1.4844-0.55859-2.0312 0z" style="fill: rgb(255, 105, 0);"/>
  <path d="m76.121 65.832c-0.5625-0.5625-1.4531-0.5625-2.0156 0s-0.5625 1.4531 0 2.0156l1.2891 1.2891c0.27344 0.27344 0.63672 0.42578 1.0156 0.42578 0.36328 0 0.72656-0.13672 1.0156-0.42578 0.5625-0.5625 0.5625-1.4531 0-2.0156z" style="fill: rgb(255, 105, 0);"/>
  <path d="m87.348 40.289h-1.8164c-0.78906 0-1.4258 0.63672-1.4258 1.4258 0 0.78906 0.63672 1.4258 1.4258 1.4258h1.8164c0.78906 0 1.4258-0.63672 1.4258-1.4258 0-0.78906-0.63672-1.4258-1.4258-1.4258z" style="fill: rgb(255, 105, 0);"/>
  <path d="m75.121 18.016c0.36328 0 0.72656-0.13672 1.0156-0.42578l1.2891-1.2891c0.5625-0.5625 0.5625-1.4531 0-2.0156s-1.4531-0.5625-2.0156 0l-1.2891 1.2891c-0.5625 0.5625-0.5625 1.4531 0 2.0156 0.27344 0.28906 0.63672 0.42578 1 0.42578z" style="fill: rgb(255, 105, 0);"/>
  <path d="m66.605 34.805c-0.13672-0.03125-0.21094-0.18359-0.22656-0.21094-0.0625-0.16797-0.13672-0.33203-0.21094-0.5-0.015625-0.046875-0.074219-0.19531 0-0.30469l1.2109-1.7578c0.84766-1.2422 0.69531-2.9258-0.36328-3.9844l-4.0469-4.0469c-1.0625-1.0625-2.7422-1.2266-3.9844-0.36328l-1.7578 1.2109c-0.12109 0.074219-0.27344 0.03125-0.31641 0l-0.48438-0.21094c-0.0625-0.03125-0.19531-0.089844-0.21094-0.22656l-0.34766-1.8633c-0.30469-1.668-1.5625-2.7891-3.1211-2.7891h-5.7266c-1.5156 0-2.8047 1.0742-3.0742 2.5625l-0.39453 2.0898c-0.03125 0.13672-0.16797 0.21094-0.21094 0.22656-0.16797 0.0625-0.33203 0.13672-0.48438 0.21094-0.0625 0.03125-0.19531 0.074219-0.30469 0l-1.5625-1.0742c-1.3945-0.96875-3.0742-0.86328-4.1836 0.22656l-4.0469 4.0469c-1.0625 1.0625-1.2266 2.7422-0.36328 3.9844l1.2109 1.7578c0.074219 0.12109 0.03125 0.27344 0.015625 0.30469-0.074219 0.16797-0.13672 0.33203-0.21094 0.5-0.015625 0.046875-0.089844 0.19531-0.22656 0.21094l-2.0898 0.39453c-1.4844 0.27344-2.5625 1.5742-2.5625 3.0742v5.7266c0 1.5156 1.0742 2.8047 2.5625 3.0742l2.0898 0.39453c0.13672 0.03125 0.21094 0.18359 0.22656 0.21094 0.0625 0.16797 0.13672 0.33203 0.21094 0.48437 0.015625 0.046876 0.074218 0.19531 0 0.31641l-1.2109 1.7578c-0.86328 1.2422-0.69531 2.9258 0.36328 3.9844l4.0469 4.0469c1.0625 1.0625 2.7422 1.2266 3.9844 0.36328l1.7578-1.2109c0.12109-0.074219 0.27344-0.03125 0.31641 0 0.16797 0.074219 0.31641 0.13672 0.48438 0.19531 0.046875 0.015624 0.19531 0.089843 0.22656 0.22656l0.34766 1.8633c0.30469 1.668 1.5625 2.7891 3.1211 2.7891h5.7266c1.5156 0 2.8047-1.0742 3.0742-2.5625l0.39453-2.0898c0.03125-0.13672 0.18359-0.21094 0.22656-0.22656 0.16797-0.0625 0.33203-0.13672 0.48438-0.19531 0.046875-0.015625 0.19531-0.074219 0.31641 0l1.7578 1.2109c1.2422 0.86328 2.9258 0.69531 3.9844-0.36328l4.0469-4.0469c1.0625-1.0625 1.2266-2.7422 0.36328-3.9844l-1.2109-1.7578c-0.074218-0.12109-0.03125-0.27344 0-0.31641l0.19531-0.48437c0.015625-0.046876 0.089843-0.19531 0.22656-0.22656l2.0898-0.39453c1.4844-0.27344 2.5625-1.5742 2.5625-3.0742v-5.7266c0-1.5156-1.0742-2.8047-2.5625-3.0742zm1.8047 9.1953c0 0.13672-0.089844 0.25781-0.22656 0.27344l-2.0898 0.39453c-1.0625 0.19531-1.9375 0.92578-2.3477 1.9688l-0.16797 0.41016c-0.45312 1.0312-0.34766 2.168 0.27344 3.0742l1.2109 1.7578c0.074219 0.10547 0.0625 0.25781-0.03125 0.36328l-4.0469 4.0469c-0.089844 0.089844-0.24219 0.10547-0.36328 0.03125l-1.7578-1.2109c-0.89453-0.62109-2.0469-0.71094-3.0742-0.27344l-0.41016 0.16797c-1.0312 0.41016-1.7734 1.2891-1.9688 2.3477l-0.39453 2.1055c-0.03125 0.13672-0.13672 0.22656-0.27344 0.22656h-5.7266c-0.21094 0-0.30469-0.34766-0.31641-0.45312l-0.34766-1.8633c-0.19531-1.0625-0.92578-1.9375-1.9688-2.3477l-0.41016-0.16797c-0.41016-0.21484-0.86719-0.30469-1.3047-0.30469-0.62109 0-1.2422 0.18359-1.7578 0.54688l-1.7578 1.2109c-0.10547 0.074218-0.25781 0.0625-0.36328-0.03125l-4.0469-4.0469c-0.089844-0.089843-0.10547-0.24219-0.03125-0.36328l1.2109-1.7578c0.62109-0.89453 0.71094-2.0469 0.27344-3.0742-0.0625-0.13672-0.12109-0.27344-0.16797-0.41016-0.41016-1.0312-1.2891-1.7734-2.3477-1.9688l-2.0898-0.39453c-0.13672-0.03125-0.22656-0.13672-0.22656-0.27344v-5.7266c0-0.13672 0.089844-0.25781 0.22656-0.27344l2.0898-0.39453c1.0625-0.19531 1.9375-0.92578 2.3633-1.9688 0.046875-0.13672 0.10547-0.27344 0.16797-0.41016 0.4375-1.0312 0.34766-2.168-0.27344-3.0625l-1.2109-1.7578c-0.074218-0.10547-0.0625-0.25781 0.03125-0.36328l4.0469-4.0469c0.15234-0.15234 0.4375 0.015625 0.54687 0.10547l1.5586 1.0977c0.89453 0.62109 2.0312 0.71094 3.0625 0.27344l0.41016-0.16797c1.0312-0.41016 1.7734-1.2891 1.9688-2.3477l0.39453-2.0898c0.03125-0.13672 0.13672-0.22656 0.27344-0.22656h5.7266c0.21094 0 0.28906 0.31641 0.31641 0.45312l0.34766 1.8633c0.19531 1.0625 0.92578 1.9375 1.9531 2.3477l0.41016 0.16797c1.0312 0.4375 2.168 0.34766 3.0625-0.27344l1.7578-1.2109c0.10547-0.074218 0.25781-0.0625 0.36328 0.03125l4.0469 4.0469c0.089844 0.089844 0.10547 0.24219 0.03125 0.36328l-1.2109 1.7578c-0.62109 0.89453-0.71094 2.0469-0.27344 3.0625l0.16797 0.41016c0.41016 1.0312 1.2891 1.7578 2.3477 1.9531l2.1172 0.40234c0.13672 0.03125 0.22656 0.13672 0.22656 0.27344z" style="fill: rgb(255, 105, 0);"/>
  <path d="m49.879 29.879c-6.2109 0-11.258 5.0469-11.258 11.258 0 6.2109 5.0469 11.258 11.258 11.258 6.2109 0 11.258-5.0469 11.258-11.258 0-6.1992-5.0469-11.258-11.258-11.258zm0 19.668c-4.6367 0-8.4102-3.7734-8.4102-8.4102s3.7734-8.4102 8.4102-8.4102c4.6367 0 8.4102 3.7734 8.4102 8.4102s-3.7734 8.4102-8.4102 8.4102z" style="fill: rgb(255, 105, 0);"/>
  <path d="m52.105 37.91-3.4531 3.4531-1-1c-0.5625-0.5625-1.4531-0.5625-2.0156 0s-0.5625 1.4531 0 2.0156l2 2c0.27344 0.27344 0.63672 0.42578 1.0156 0.42578 0.36328 0 0.72656-0.13672 1.0156-0.42578l4.4531-4.4531c0.5625-0.5625 0.5625-1.4531 0-2.0156-0.55859-0.5625-1.4688-0.5625-2.0156 0z" style="fill: rgb(255, 105, 0);"/>
</svg>