<?xml version="1.0" encoding="utf-8"?>
<svg xmlns="http://www.w3.org/2000/svg" version="1.1" viewBox="-5.0 -10.0 110.0 135.0">
  <path d="m91.902 23.289-1.8633 7.8984c-0.066406 0.28125-0.23047 0.50781-0.46875 0.65234-0.1875 0.11719-0.40234 0.17188-0.61719 0.16016-0.058594-0.003906-0.12109-0.011719-0.17969-0.027344l-7.8398-1.8789c-0.058594-0.015625-0.10938-0.03125-0.16016-0.054688-0.48047-0.20312-0.73828-0.71484-0.62109-1.2227 0.066406-0.27734 0.23047-0.50781 0.47266-0.66016 0.17969-0.11328 0.39062-0.16406 0.60547-0.15234 0.0625 0.003906 0.125 0.011719 0.1875 0.027344l5.8867 1.4102-2.2695-3.3828c-4.6992-6.9844-11.254-12.391-18.953-15.625-4.4531-1.8711-9.1328-2.9648-13.914-3.25-18.152-1.0781-35.051 9.5391-42.043 26.43-0.17188 0.41406-0.58594 0.67578-1.0312 0.64844-0.11719-0.007813-0.23047-0.035157-0.33984-0.082031-0.53516-0.22266-0.78906-0.84375-0.56641-1.3828 7.3359-17.711 25.062-28.852 44.109-27.719 5.0117 0.29688 9.9219 1.4453 14.594 3.4102 8.0234 3.3711 14.867 8.9922 19.797 16.262l2.0117 2.9727 1.1602-4.9219c0.11719-0.49219 0.58203-0.83984 1.082-0.8125 0.058594 0.003907 0.12109 0.011719 0.17969 0.027344 0.050781 0.011719 0.10938 0.03125 0.16406 0.054687 0.47656 0.19922 0.73828 0.71484 0.61719 1.2227zm-0.72656 42.238c-0.10547-0.042969-0.21875-0.070313-0.33203-0.078125-0.44922-0.027344-0.86719 0.23828-1.0352 0.65625-4.3359 10.656-12.527 18.969-23.07 23.41-6.0977 2.5703-12.492 3.6758-19.008 3.2891-4.7031-0.28125-9.3281-1.3477-13.754-3.1719l-0.23047-0.097656c-7.6094-3.1992-14.113-8.5234-18.805-15.402l-2.2969-3.3711 5.8984 1.375c0.058593 0.015625 0.11719 0.023437 0.17188 0.027343 0.50391 0.03125 0.97266-0.32422 1.0859-0.81641 0.11328-0.50391-0.14844-1.0156-0.625-1.2148-0.050781-0.023437-0.10156-0.039062-0.16406-0.054687l-7.8516-1.8281c-0.058594-0.015625-0.11719-0.019531-0.17188-0.023438-0.50391-0.03125-0.97266 0.32422-1.0859 0.81641l-1.8125 7.9102c-0.11719 0.50391 0.14453 1.0156 0.61328 1.2109 0.0625 0.023438 0.125 0.042969 0.17188 0.058594 0.058594 0.015625 0.11719 0.023438 0.17578 0.027344 0.50391 0.03125 0.96875-0.32422 1.082-0.81641l1.1289-4.9297 2.0312 2.9609c4.918 7.1562 11.711 12.699 19.633 16.027l0.26562 0.10937c4.6328 1.9141 9.4844 3.0312 14.414 3.3242 6.832 0.40625 13.539-0.75391 19.938-3.4531 11.059-4.6641 19.652-13.383 24.199-24.559 0.21875-0.53516-0.042969-1.1562-0.57422-1.3789zm-61.051-26.371-0.40625 1.1992 12.16-0.37891 0.37109-0.57031c0.14844-0.22656 0.37891-0.37891 0.64062-0.43359l11.391-2.2656c0.14844-0.03125 0.30469-0.023437 0.44922 0.015625l15.727 4.1562-0.58594-1.7227c-0.17969-0.52344 0.10156-1.0898 0.625-1.2695l7.7461-2.6328c0.25-0.085937 0.52734-0.070312 0.76562 0.050782 0.23828 0.11719 0.41797 0.32422 0.50391 0.57422l6.5 19.113c0.17969 0.52344-0.10156 1.0898-0.625 1.2695l-7.7461 2.6328c-0.10547 0.035157-0.21484 0.054688-0.32031 0.054688-0.15234 0-0.30469-0.035157-0.44141-0.10156-0.23828-0.11719-0.41797-0.32422-0.50391-0.57422l-0.52344-1.5391c-0.46875 0.19531-1.2812 0.56641-2.0195 0.90234-0.32812 0.14844-0.64062 0.29297-0.94141 0.42578l1.4648 1.3828c1.4336 1.3516 1.5273 3.6445 0.20703 5.1094-0.71875 0.80078-1.7109 1.2148-2.7148 1.2148-0.26562 0-0.52734-0.039062-0.78906-0.097656-0.035156 0.64062-0.23438 1.2656-0.61719 1.8086-0.67969 0.96875-1.75 1.4922-2.8516 1.4922-0.28125 0-0.5625-0.035156-0.83984-0.10547-0.023438 0.63281-0.21094 1.25-0.56641 1.7891-0.66797 1.0156-1.7695 1.5742-2.9062 1.5742-0.5625 0-1.1328-0.13672-1.6641-0.42188l-0.089843-0.046875c-0.035157 0.60156-0.21875 1.1875-0.55469 1.7031-0.66016 1-1.7773 1.5586-2.9141 1.5586-0.55469 0-1.1094-0.13281-1.625-0.40625l-7.4727-3.3789-0.11719 0.19141c-0.67578 1.0859-1.8438 1.6875-3.0391 1.6875-0.64062 0-1.2891-0.17188-1.875-0.53516l-0.03125-0.019531c-0.70703-0.4375-1.2148-1.1055-1.4805-1.8867-0.17187 0.070313-0.34766 0.13672-0.53516 0.17969-0.27344 0.0625-0.54688 0.09375-0.82031 0.09375-0.65625 0-1.2969-0.17969-1.8711-0.53516l-0.027344-0.015624c-0.97266-0.60547-1.543-1.6016-1.6562-2.6602-0.19531 0.03125-0.38672 0.074219-0.58203 0.074219-0.64062 0-1.2891-0.17188-1.8711-0.53125l-0.027343-0.015625c-0.97266-0.60156-1.5391-1.6016-1.6562-2.6562-0.19531 0.03125-0.38672 0.066406-0.58203 0.066406-0.65625 0-1.3008-0.18359-1.8711-0.53516l-0.027343-0.015625c-0.8125-0.50391-1.3789-1.293-1.5977-2.2188-0.13672-0.58594-0.10937-1.1758 0.042969-1.7422l-5.3008-3.125-0.41797 1.2344c-0.085937 0.25-0.26562 0.45703-0.50391 0.57422-0.14062 0.070313-0.28906 0.10156-0.44141 0.10156-0.10938 0-0.21875-0.015625-0.32031-0.054688l-7.7461-2.6328c-0.52344-0.17969-0.80469-0.74609-0.625-1.2695l6.5-19.113c0.085938-0.25 0.26563-0.45703 0.50391-0.57422 0.23828-0.11719 0.51172-0.13672 0.76562-0.050782l7.7461 2.6328c0.52344 0.17969 0.80469 0.74609 0.625 1.2695zm-2.2148 0.30469-5.8516-1.9922-5.8555 17.219 5.8516 1.9922zm5.2539 23.168c0.40625-0.09375 0.75391-0.34375 0.97266-0.69922l0.27344-0.44141 1.3516-2.1797c0.21875-0.35547 0.28906-0.77344 0.19141-1.1836-0.09375-0.40625-0.34375-0.75391-0.69922-0.97266-0.27344-0.17188-0.56641-0.25391-0.85938-0.25391-0.11719 0-0.23828 0.015624-0.35547 0.042968-0.40625 0.09375-0.75391 0.34375-0.97266 0.69922l-1.625 2.6211c-0.45703 0.73438-0.22656 1.7031 0.50391 2.1562l0.03125 0.019531c0.35547 0.21875 0.77344 0.28906 1.1836 0.19531zm5.1055 2.4414 2.8945-4.6719c0.45313-0.73438 0.22656-1.7031-0.50781-2.1562-0.27344-0.16797-0.57031-0.25-0.85938-0.25-0.52734 0-1.0352 0.26172-1.3281 0.73437l-1.7422 2.8125-0.89453 1.4414-0.25781 0.41797c-0.45312 0.73437-0.22656 1.7031 0.50781 2.1562l0.03125 0.019531c0.73438 0.45312 1.7031 0.22656 2.1562-0.50781zm4.1406 3.1367 0.34375-0.55469 0.57422-0.92578 1.9766-3.1875c0.21875-0.35547 0.28906-0.77734 0.19531-1.1836s-0.34375-0.75391-0.69922-0.97266c-0.27344-0.17187-0.56641-0.25391-0.85938-0.25391-0.11719 0-0.23828 0.015625-0.35547 0.042969-0.40625 0.09375-0.75391 0.34375-0.97266 0.69922l-2.8984 4.6719c-0.21875 0.35547-0.28906 0.77734-0.19531 1.1836s0.34375 0.75391 0.69922 0.97266l0.03125 0.019531c0.73438 0.45312 1.7031 0.22656 2.1562-0.50781zm4.7383 2.168 1.625-2.6211c0.21875-0.35547 0.28906-0.77734 0.19531-1.1836s-0.34375-0.75391-0.69922-0.97266c-0.27344-0.16797-0.57031-0.25-0.85938-0.25-0.52734 0-1.0352 0.26172-1.3281 0.73438l-0.61719 0.99609-1.0078 1.6289c-0.21875 0.35547-0.28516 0.77344-0.19141 1.1797s0.34375 0.75391 0.69922 0.97266l0.03125 0.019531c0.73438 0.45703 1.7031 0.23047 2.1562-0.50391zm24.941-30.914 5.8555 17.219 5.8516-1.9922-5.8555-17.219zm-43.059 2.918-4.3359 12.75c0.046876 0.019532 0.09375 0.023438 0.14063 0.046875l5.4258 3.1992 1.1094-1.7891c0.50391-0.80859 1.2891-1.375 2.2188-1.5938 0.92578-0.21875 1.8828-0.0625 2.6953 0.44141 0.56641 0.35156 0.98438 0.83203 1.2773 1.375 1.1484-0.9375 2.8008-1.1094 4.1289-0.28516 0.98438 0.60937 1.5586 1.6094 1.6758 2.6641 0.85156-0.14062 1.7188 0.011719 2.4609 0.47266 0.83984 0.51953 1.4062 1.3086 1.625 2.2344 0.11328 0.48828 0.12109 0.98047 0.03125 1.4609 0.62109 0.011719 1.2461 0.16797 1.8125 0.51953 0.83984 0.52344 1.4062 1.3086 1.625 2.2344 0.21875 0.92969 0.0625 1.8828-0.44141 2.6953l-0.44141 0.71484 7.2969 3.3008c0.72266 0.38672 1.5625 0.17188 1.9766-0.45703 0.15625-0.24219 0.24219-0.51562 0.24219-0.79688 0-0.40234-0.15625-0.77344-0.44141-1.0469-0.082031-0.082031-0.16797-0.14844-0.26172-0.20703-0.007812-0.003906-0.007812-0.011719-0.015624-0.015625l-6.4297-3.4688c-0.48438-0.26172-0.66797-0.86719-0.40625-1.3555 0.26172-0.48438 0.86719-0.66797 1.3555-0.40625l9.2227 4.9727c0.68359 0.36719 1.5273 0.15625 1.9531-0.49219 0.16016-0.24219 0.24609-0.52734 0.24609-0.8125 0-0.51562-0.25391-0.98438-0.68359-1.2578-0.007812-0.003906-0.011719-0.007812-0.019531-0.015624l-8.0742-4.6562c-0.47656-0.27734-0.64062-0.88672-0.36719-1.3672 0.27734-0.48047 0.88672-0.64453 1.3672-0.36719l9.8594 5.6836c0.67188 0.38672 1.5195 0.19922 1.9648-0.4375 0.23438-0.33203 0.32031-0.73828 0.24219-1.1367-0.078125-0.39844-0.30859-0.74219-0.65234-0.96484l-0.48047-0.3125-4.668-3.0352-3.957-2.5703c-0.46094-0.30078-0.59375-0.92188-0.29297-1.3828 0.30078-0.46094 0.92188-0.59375 1.3828-0.29297l8.625 5.6055 0.48047 0.3125 1.4531 0.94531c0.6875 0.44531 1.5859 0.32812 2.1367-0.28125 0.59766-0.66406 0.55469-1.7031-0.09375-2.3164l-10.336-9.75c-1.8086-1.7031-4.1641-2.7812-6.6367-3.0312l-3.6484-0.36719c-0.55078-0.054687-0.94922-0.54688-0.89453-1.0938 0.054687-0.55078 0.53516-0.94531 1.0938-0.89453l3.6484 0.36719c2.9102 0.29297 5.6836 1.5586 7.8086 3.5625l7.293 6.8789c0.47266-0.20703 1.1016-0.49219 1.6836-0.75781 0.89062-0.40625 1.7148-0.78125 2.207-0.97656l-4-11.766c-0.11719 0.011718-0.23828 0.011718-0.35938-0.019532l-16.398-4.332-10.754 2.1406-4.75 7.25c-0.097656 0.15234-0.050781 0.28906-0.015625 0.35547s0.125 0.15625 0.30078 0.17578l0.97266-0.007812c2.0391-0.023438 4.0156-0.77344 5.5664-2.1016l2.2539-1.9375c0.41797-0.35938 1.0508-0.3125 1.4102 0.10547 0.35938 0.41797 0.3125 1.0508-0.10547 1.4102l-2.2539 1.9414c-1.9062 1.6367-4.3359 2.5547-6.8516 2.5859l-0.97266 0.007812h-0.03125c-0.84766 0-1.6328-0.46484-2.043-1.2188-0.41797-0.76172-0.37891-1.6875 0.097656-2.4141l3.2656-4.9883-11.508 0.35938z" style="fill: rgb(255, 105, 0);"/>
</svg>